<?xml version="1.0" standalone="no"?>
<!DOCTYPE svg PUBLIC "-//W3C//DTD SVG 20010904//EN"
 "http://www.w3.org/TR/2001/REC-SVG-20010904/DTD/svg10.dtd">
<svg version="1.0" xmlns="http://www.w3.org/2000/svg"
 width="640.000000pt" height="1280.000000pt" viewBox="0 0 640.000000 1280.000000"
 preserveAspectRatio="xMidYMid meet">
<metadata>
Created by potrace 1.15, written by Peter Selinger 2001-2017
</metadata>
<g transform="translate(0.000000,1280.000000) scale(0.100000,-0.100000)"
fill="#000000" stroke="none">
<path d="M3254 12710 c-26 -51 -99 -163 -163 -248 -192 -260 -345 -531 -465
-823 -188 -461 -275 -857 -306 -1399 -18 -326 -51 -4436 -36 -4555 7 -55 9
-58 22 -40 59 81 265 1012 324 1471 62 471 117 722 224 1009 117 313 256 574
325 609 42 22 107 20 146 -4 94 -58 210 -273 309 -573 96 -287 165 -587 261
-1127 71 -401 95 -483 112 -384 4 27 8 900 8 1939 l0 1890 -28 165 c-111 640
-256 1107 -502 1620 -126 263 -145 309 -145 363 0 57 -17 158 -29 170 -5 5
-28 -27 -57 -83z"/>
<path d="M1821 10104 c-31 -39 -52 -91 -143 -339 -109 -299 -207 -594 -224
-674 -31 -144 -41 -868 -60 -4276 -7 -1303 -11 -1231 65 -1135 142 180 437
700 518 915 l30 80 12 1235 c29 3191 30 3139 -39 3686 -43 351 -61 453 -88
499 -24 39 -45 42 -71 9z"/>
<path d="M4604 10014 c-19 -42 -60 -147 -90 -233 -131 -368 -152 -443 -164
-591 -24 -321 -48 -1429 -56 -2715 -9 -1238 -5 -1297 110 -1640 105 -312 227
-598 352 -826 64 -117 97 -159 108 -140 22 34 42 1394 52 3531 8 1622 8 1630
-81 2160 -36 217 -71 408 -77 425 -18 42 -77 105 -100 105 -14 0 -28 -19 -54
-76z"/>
<path d="M3200 8631 c-70 -74 -205 -368 -294 -638 -82 -253 -135 -498 -156
-718 -26 -279 -37 -1025 -55 -3545 -8 -1104 -14 -1210 -81 -1386 -73 -190
-106 -336 -144 -634 -11 -86 -27 -176 -37 -200 -14 -37 -17 -79 -18 -231 0
-228 0 -229 104 -229 94 0 133 -14 191 -68 l50 -47 -25 -110 c-13 -60 -22
-118 -19 -127 8 -26 41 -31 182 -26 160 5 172 11 172 81 0 68 -16 97 -68 125
-23 13 -42 31 -42 40 0 9 16 33 36 53 49 51 51 80 23 379 -29 320 -28 428 5
605 53 278 119 513 155 548 17 18 19 18 44 -12 28 -34 136 -351 182 -536 26
-102 27 -120 22 -250 -3 -77 -15 -256 -27 -398 -12 -141 -19 -268 -16 -282 10
-39 42 -49 151 -50 107 0 132 8 202 64 l33 26 0 103 c0 424 -70 924 -172 1232
l-31 94 13 2321 12 2321 -32 64 c-69 138 -106 173 -219 209 -80 26 -126 26
-194 1 -74 -28 -150 -100 -206 -195 -38 -64 -52 -81 -73 -83 -22 -3 -30 3 -44
29 -14 27 -15 41 -6 78 27 117 148 256 275 317 113 53 178 61 326 40 67 -9
126 -14 132 -10 41 25 -147 839 -233 1007 -21 43 -52 77 -70 77 -6 0 -28 -18
-48 -39z"/>
<path d="M3876 6418 c-14 -49 -26 -837 -36 -2309 l-10 -1536 50 -137 c91 -249
129 -406 171 -700 28 -201 34 -218 82 -229 32 -8 55 -3 145 26 59 20 278 74
487 122 551 125 839 193 929 217 l79 21 -6 276 c-4 152 -11 298 -17 325 -17
83 -204 336 -459 621 -216 242 -301 350 -436 555 -213 323 -368 649 -525 1105
-127 369 -201 649 -335 1253 -93 421 -102 450 -119 390z"/>
<path d="M2591 6286 c-6 -15 -45 -163 -87 -329 -206 -824 -403 -1373 -653
-1822 -140 -251 -377 -593 -511 -740 -46 -49 -121 -137 -169 -195 -111 -136
-316 -373 -409 -473 -121 -129 -134 -178 -139 -544 l-4 -262 23 -6 c13 -3 91
-21 173 -41 235 -55 400 -91 530 -114 282 -50 816 -181 889 -217 51 -26 100
-33 117 -16 6 6 21 92 34 193 35 269 59 376 140 636 29 94 58 197 64 230 22
124 43 3680 21 3714 -7 11 -11 9 -19 -14z"/>
<path d="M3159 2273 c-36 -93 -82 -439 -81 -603 1 -140 30 -538 58 -792 l16
-148 -22 -55 c-25 -61 -24 -102 0 -266 12 -79 24 -109 36 -96 14 14 22 348 25
1161 3 647 1 820 -8 823 -7 3 -18 -8 -24 -24z"/>
<path d="M1445 1579 c-79 -12 -119 -26 -140 -49 -16 -17 -19 -53 -27 -272 -11
-335 -24 -414 -98 -643 -73 -225 -74 -221 42 -210 86 7 118 -3 118 -38 0 -12
-16 -94 -35 -182 -23 -108 -31 -163 -24 -170 14 -14 386 -19 567 -8 192 12
183 1 149 195 -31 171 -32 197 -14 203 6 3 52 9 100 14 49 5 94 14 100 20 8 8
8 24 -1 59 -15 55 -100 290 -143 393 l-29 72 0 222 c0 122 -3 250 -7 285 -6
62 -7 63 -47 80 -23 10 -76 23 -119 29 -91 13 -305 13 -392 0z"/>
<path d="M4410 1499 c-110 -19 -199 -41 -217 -54 -16 -12 -18 -36 -23 -247
l-5 -233 -91 -195 c-117 -250 -158 -354 -151 -373 7 -18 36 -24 170 -33 81 -5
97 -9 97 -22 0 -10 -13 -66 -29 -127 -42 -163 -44 -180 -25 -196 14 -11 82
-14 360 -14 229 0 347 4 354 11 7 7 1 58 -21 174 -37 193 -38 189 75 191 39 1
82 4 96 8 44 13 33 77 -54 316 l-77 210 -4 263 c-3 149 -9 271 -15 281 -6 12
-30 24 -62 31 -69 16 -307 22 -378 9z"/>
<path d="M3360 820 c-6 -11 -12 -44 -13 -72 l-2 -53 34 -3 c41 -4 51 8 51 63
0 68 -46 110 -70 65z"/>
</g>
</svg>
