<svg xmlns="http://www.w3.org/2000/svg" viewBox="0 0 462.72 3240"><defs><style>.cls-1{fill:#40798C;}</style></defs><g id="Calque_2" data-name="Calque 2"><g id="Calque_1-2" data-name="Calque 1"><path class="cls-1" d="M462.72,0V3240h0a1195.19,1195.19,0,0,1-174-248c-131.6-250.36-135.27-475.82-135.46-518-.39-88.41,11-174.31,16.46-211,17-114.4,36.45-154.15,50-259.76,4-31,15.39-119.21,8.4-214.24-27.4-372.37-190-442.45-124.78-703C146.88,912.07,231.79,893.48,243.1,712c8.12-130.19-34.55-297.11-92.44-416.18-2.7-5.55-10.55-21.14-26.25-52.32C58.59,112.82,0,0,0,0H462.72Z"/></g></g></svg>
