<svg xmlns="http://www.w3.org/2000/svg" viewBox="0 0 130 4320"><defs><style>.cls-1{fill:#40798C;}</style></defs><g id="Calque_2" data-name="Calque 2"><g id="Calque_1-2" data-name="Calque 1"><path class="cls-1" d="M130,0V4320s-43.85-214.61-35.09-368c18-314.08,27.86-487.42,2-712C85,3136.36,75.47,3109.36,35.61,2810.67,17.89,2677.91,9,2611.53,7,2586.67-17.55,2295,65.71,2233.5,79.1,1917.33c1.23-29,1.67-56.24,1.69-58.71a1397.21,1397.21,0,0,0-14.54-211.95C42.65,1475.52,51.79,1269.11,52.41,1256c7-146.52,25.62-151,44.48-353.33C109.25,770,116,697.57,111.72,596,99,296.11.88,3.18.56,2L0,0H130Z"/></g></g></svg>
